<?xml version="1.0" encoding="iso-8859-1"?>
<!-- Generator: Adobe Illustrator 19.0.0, SVG Export Plug-In . SVG Version: 6.00 Build 0)  -->
<svg version="1.1" id="Layer_1" xmlns="http://www.w3.org/2000/svg" xmlns:xlink="http://www.w3.org/1999/xlink" x="0px" y="0px"
	 viewBox="0 0 512 512" style="enable-background:new 0 0 512 512;" xml:space="preserve">
<g>
	<path style="fill:#3C4A5E;" d="M153.682,407.199c0.069-1.051,0.102-2.115,0.102-3.177c0-26.989-21.879-48.869-48.869-48.869
		c-27.001,0-48.88,21.879-48.88,48.869c0,1.064,0.034,2.126,0.102,3.177c1.634,25.515,22.839,45.702,48.777,45.702
		C130.842,452.902,152.048,432.714,153.682,407.199z"/>
	<path style="fill:#3C4A5E;" d="M452.907,407.199c0.069-1.051,0.102-2.115,0.102-3.177c0-26.989-21.879-48.869-48.869-48.869
		c-27.001,0-48.88,21.879-48.88,48.869c0,1.064,0.034,2.126,0.102,3.177c1.634,25.515,22.839,45.702,48.777,45.702
		C430.068,452.902,451.273,432.714,452.907,407.199z"/>
</g>
<path style="fill:#AFE0EF;" d="M382.218,275.615H54.769l-0.011-0.011c0.926-0.834,1.795-1.727,2.618-2.652
	c3.543-4.013,6.172-8.814,7.624-14.095l6.299-22.851c9.602-34.911,41.347-59.088,77.538-59.088h135.804
	c38.626,0,72.909,24.714,85.118,61.352L382.218,275.615z"/>
<path style="fill:#C9EEF7;" d="M382.218,275.615h-189.05c99.453-32.591,91.474-98.697,91.474-98.697
	c38.626,0,72.909,24.714,85.118,61.352L382.218,275.615z"/>
<path style="fill:#F9E27D;" d="M54.77,314.508c-4.2,0-7.604-3.405-7.604-7.604v-30.996c-0.006-0.138-0.007-0.276-0.005-0.415
	c0.031-2.113,0.936-4.122,2.505-5.538c0.673-0.607,1.336-1.279,2.027-2.056c2.782-3.151,4.854-6.981,5.977-11.06l6.299-22.854
	c10.473-38.077,45.373-64.672,84.869-64.672h135.804c41.962,0,79.066,26.745,92.331,66.552l12.458,37.344
	c1.33,3.983-0.823,8.29-4.806,9.62c-3.987,1.327-8.291-0.822-9.62-4.807l-12.459-37.346c-11.193-33.588-42.5-56.154-77.905-56.154
	H148.837c-32.673,0-61.542,22.001-70.207,53.501l-6.299,22.854c-1.732,6.295-4.932,12.213-9.257,17.109
	c-0.232,0.263-0.466,0.52-0.701,0.772v28.147C62.374,311.104,58.969,314.508,54.77,314.508z"/>
<path style="fill:#CCCCCC;" d="M104.912,424.075c-11.055,0-20.049-8.994-20.049-20.05c0-11.055,8.994-20.049,20.049-20.049
	s20.05,8.994,20.05,20.049C124.961,415.08,115.967,424.075,104.912,424.075z"/>
<path style="fill:#F9E27D;" d="M466.202,281.832l-83.985-6.219H260.828v-96.065H245.62v96.065h-89.085v-98.27h-15.208v98.27h-86.56
	l-0.011-0.011c-3.029,2.778-6.538,5.052-10.426,6.653c-13.284,5.498-21.948,18.461-21.948,32.842v92.102h33.757
	c-0.069-1.052-0.103-2.115-0.103-3.178c0-26.989,21.879-48.868,48.88-48.868c26.989,0,48.869,21.879,48.869,48.868
	c0,1.064-0.034,2.126-0.103,3.178h201.682c-0.069-1.052-0.103-2.115-0.103-3.178c0-26.989,21.879-48.868,48.88-48.868
	c26.989,0,48.869,21.879,48.869,48.868c0,1.064-0.034,2.126-0.103,3.178h31.893l14.712-82.454
	C503.331,303.391,487.831,283.433,466.202,281.832z"/>
<path style="fill:#CCCCCC;" d="M404.138,424.075c-11.056,0-20.05-8.994-20.05-20.05c0-11.055,8.994-20.049,20.05-20.049
	c11.055,0,20.048,8.994,20.048,20.049S415.192,424.075,404.138,424.075z"/>
<path style="fill:#E8D274;" d="M153.684,407.199c0.071-1.054,0.101-2.109,0.101-3.173c0-26.989-21.879-48.868-48.868-48.868
	c-26.999,0-48.878,21.879-48.878,48.868c0,1.065,0.03,2.119,0.101,3.173H22.379V315.1c0-14.377,8.669-27.344,21.95-32.839
	c3.883-1.602,7.401-3.883,10.422-6.661l0.02,0.02h44.083c0,0,13.069,87.973,166.273,131.579L153.684,407.199L153.684,407.199z"/>
<path style="fill:#3C4A5E;" d="M470.468,352.782c-0.444,0-0.893-0.04-1.345-0.12c-4.135-0.738-6.887-4.688-6.149-8.823l4.448-24.914
	c0.738-4.135,4.687-6.89,8.823-6.149c4.135,0.738,6.887,4.688,6.149,8.823l-4.448,24.914
	C477.287,350.194,474.083,352.782,470.468,352.782z"/>
<g>
	<path style="fill:#B5C0C9;" d="M504.396,387.372h-27.912c-4.2,0-7.604-3.405-7.604-7.604c0-4.199,3.404-7.604,7.604-7.604h27.912
		c4.2,0,7.604,3.405,7.604,7.604C512,383.967,508.596,387.372,504.396,387.372z"/>
	<path style="fill:#B5C0C9;" d="M40.584,387.372H7.604c-4.2,0-7.604-3.405-7.604-7.604c0-4.199,3.404-7.604,7.604-7.604h32.98
		c4.2,0,7.604,3.405,7.604,7.604C48.188,383.967,44.784,387.372,40.584,387.372z"/>
</g>
<path style="fill:#F26464;" d="M242.884,388.824c-1.101,0-2.218-0.24-3.276-0.746c-3.788-1.812-5.39-6.353-3.578-10.141
	l13.837-28.928h-23.826c-2.612,0-5.041-1.34-6.433-3.55c-1.393-2.209-1.553-4.979-0.427-7.335l19.044-39.813
	c1.813-3.79,6.355-5.39,10.141-3.578c3.788,1.812,5.39,6.353,3.578,10.141l-13.837,28.928h23.826c2.612,0,5.041,1.34,6.433,3.55
	c1.393,2.209,1.553,4.979,0.427,7.335L249.749,384.5C248.442,387.23,245.719,388.824,242.884,388.824z"/>
<g>
	<path style="fill:#AFCCD3;" d="M475.264,204.348c-4.199,0-7.604-3.405-7.604-7.604c0-67.512-54.925-122.437-122.437-122.437
		c-4.199,0-7.604-3.405-7.604-7.604s3.405-7.604,7.604-7.604c75.898,0,137.645,61.747,137.645,137.645
		C482.868,200.944,479.463,204.348,475.264,204.348z"/>
	<path style="fill:#AFCCD3;" d="M432.156,204.348c-4.199,0-7.604-3.405-7.604-7.604c0-43.742-35.588-79.33-79.33-79.33
		c-4.199,0-7.604-3.405-7.604-7.604c0-4.199,3.405-7.604,7.604-7.604c52.128,0,94.538,42.41,94.538,94.538
		C439.76,200.944,436.356,204.348,432.156,204.348z"/>
	<path style="fill:#AFCCD3;" d="M389.048,204.348c-4.199,0-7.604-3.405-7.604-7.604c0-19.973-16.249-36.222-36.222-36.222
		c-4.199,0-7.604-3.405-7.604-7.604c0-4.199,3.405-7.604,7.604-7.604c28.359,0,51.43,23.071,51.43,51.43
		C396.652,200.944,393.248,204.348,389.048,204.348z"/>
</g>
<g>
</g>
<g>
</g>
<g>
</g>
<g>
</g>
<g>
</g>
<g>
</g>
<g>
</g>
<g>
</g>
<g>
</g>
<g>
</g>
<g>
</g>
<g>
</g>
<g>
</g>
<g>
</g>
<g>
</g>
</svg>
