<?xml version="1.0" encoding="iso-8859-1"?>
<!-- Generator: Adobe Illustrator 19.0.0, SVG Export Plug-In . SVG Version: 6.00 Build 0)  -->
<svg version="1.1" id="Layer_1" xmlns="http://www.w3.org/2000/svg" xmlns:xlink="http://www.w3.org/1999/xlink" x="0px" y="0px"
	 viewBox="0 0 512 512" style="enable-background:new 0 0 512 512;" xml:space="preserve">
<circle style="fill:#F4E3C3;" cx="256" cy="256" r="256"/>
<path style="fill:#FED8B2;" d="M511.569,270.724l-94.384-94.384l-7.071,14.486l-76.393-76.393l-35.631,81.084l-8.185,5.318
	l-87.861-86.402l-7.53,120.88L94.815,395.324l111.921,111.921C222.68,510.354,239.147,512,256,512
	C392.442,512,503.939,405.256,511.569,270.724z"/>
<rect x="202.266" y="153.548" style="fill:#804000;" width="107.451" height="26.864"/>
<rect x="256.172" y="153.548" style="fill:#6D3501;" width="53.545" height="26.864"/>
<path style="fill:#B97850;" d="M94.815,207.274v188.049h112.342v-78.3c0-18.927,7.44-37.342,21.206-52.483l27.639-30.403
	l27.639,30.403c13.764,15.141,21.206,33.556,21.206,52.483v78.3h112.338V207.274H94.815z"/>
<path style="fill:#935635;" d="M256.181,207.274v27.062l27.458,30.205c13.764,15.141,21.206,33.556,21.206,52.483v78.3h112.34
	V207.274H256.181z"/>
<rect x="94.815" y="176.338" style="fill:#D3B079;" width="322.37" height="42.332"/>
<rect x="256.172" y="176.338" style="fill:#BC9561;" width="161.013" height="42.331"/>
<path style="fill:#804000;" d="M203.592,127.493L203.592,127.493c1.038-2.143,1.427-4.563,1.302-7.134
	c-0.372-7.606-14.348-14.027-14.348-14.027s-15.138,6.472-15.138,14.746c0,2.301,0.379,4.472,1.321,6.415l0,0H203.592z"/>
<path style="fill:#6D3501;" d="M335.267,127.493L335.267,127.493c1.038-2.143,1.427-4.563,1.302-7.134
	c-0.372-7.606-14.348-14.027-14.348-14.027s-15.138,6.472-15.138,14.746c0,2.301,0.379,4.472,1.321,6.415l0,0H335.267z"/>
<path style="fill:#935635;" d="M151.952,314.732c1.317-2.719,2.019-5.792,1.86-9.054c-0.472-9.654-18.211-17.805-18.211-17.805
	s-19.213,8.213-19.213,18.716c0,2.922,0.688,5.677,1.883,8.14l0,0c-5.535,0-10.023,4.487-10.023,10.023v70.57h53.729v-70.57
	C161.975,319.219,157.487,314.732,151.952,314.732L151.952,314.732z"/>
<path style="fill:#774028;" d="M393.73,314.732c1.317-2.719,2.019-5.792,1.86-9.054c-0.472-9.654-18.211-17.805-18.211-17.805
	s-19.213,8.213-19.213,18.716c0,2.922,0.688,5.677,1.883,8.14l0,0c-5.535,0-10.023,4.487-10.023,10.023v70.57h53.729v-70.57
	C403.753,319.219,399.265,314.732,393.73,314.732L393.73,314.732z"/>
<rect x="176.735" y="126.673" style="fill:#A56441;" width="26.864" height="268.636"/>
<rect x="308.407" y="126.673" style="fill:#7F442D;" width="26.864" height="268.636"/>
<g>
</g>
<g>
</g>
<g>
</g>
<g>
</g>
<g>
</g>
<g>
</g>
<g>
</g>
<g>
</g>
<g>
</g>
<g>
</g>
<g>
</g>
<g>
</g>
<g>
</g>
<g>
</g>
<g>
</g>
</svg>
