<?xml version="1.0" encoding="iso-8859-1"?>
<!-- Generator: Adobe Illustrator 19.0.0, SVG Export Plug-In . SVG Version: 6.00 Build 0)  -->
<svg version="1.1" id="Layer_1" xmlns="http://www.w3.org/2000/svg" xmlns:xlink="http://www.w3.org/1999/xlink" x="0px" y="0px"
	 viewBox="0 0 512.001 512.001" style="enable-background:new 0 0 512.001 512.001;" xml:space="preserve">
<g>
	<path style="fill:#EAC591;" d="M171.139,207.163v296.589h42.172v-207.08c0-17.908,19.203-38.174,42.052-38.174l0,0
		c22.848,0,42.339,20.266,42.339,38.174v207.08h43.161V207.163H171.139z"/>
	<polygon style="fill:#EAC591;" points="183.388,39.688 328.612,39.688 301.597,8.248 209.61,8.248 	"/>
</g>
<g>
	<rect x="77.59" y="207.168" style="fill:#EFD7AB;" width="104.546" height="296.592"/>
	<rect x="329.861" y="207.168" style="fill:#EFD7AB;" width="104.546" height="296.592"/>
</g>
<path style="fill:#E0AC70;" d="M456.764,175.723H54.951c-3.391,0-5.116,4.074-2.757,6.51l24.146,24.93h357.953l25.17-24.87
	C461.902,179.881,460.195,175.723,456.764,175.723z"/>
<g>
	<path style="fill:#EFD7AB;" d="M438.388,175.723H73.612v-29.665c0-3.185,2.582-5.767,5.767-5.767h353.24
		c3.185,0,5.767,2.582,5.767,5.767L438.388,175.723L438.388,175.723z"/>
	<path style="fill:#EFD7AB;" d="M419.375,140.291H92.625v-29.665c0-3.185,2.582-5.767,5.767-5.767h315.216
		c3.185,0,5.767,2.582,5.767,5.767V140.291z"/>
</g>
<g>
	<path style="fill:#EAC591;" d="M144.989,334.632H111.72c-4.555,0-8.248-3.692-8.248-8.248c0-4.556,3.693-8.248,8.248-8.248h33.269
		c4.555,0,8.248,3.692,8.248,8.248C153.237,330.94,149.545,334.632,144.989,334.632z"/>
	<path style="fill:#EAC591;" d="M398.028,334.632H364.76c-4.555,0-8.248-3.692-8.248-8.248c0-4.556,3.693-8.248,8.248-8.248h33.269
		c4.555,0,8.248,3.692,8.248,8.248C406.277,330.94,402.584,334.632,398.028,334.632z"/>
	<path style="fill:#EAC591;" d="M128.355,277.469c-13.721,0-24.883-11.162-24.883-24.883c0-13.721,11.162-24.883,24.883-24.883
		c13.721,0,24.883,11.162,24.883,24.883C153.238,266.307,142.076,277.469,128.355,277.469z M128.355,244.2
		c-4.625,0-8.386,3.762-8.386,8.386c0,4.624,3.761,8.386,8.386,8.386s8.386-3.762,8.386-8.386
		C136.741,247.963,132.979,244.2,128.355,244.2z"/>
	<path style="fill:#EAC591;" d="M381.394,277.469c-13.721,0-24.883-11.162-24.883-24.883c0-13.721,11.162-24.883,24.883-24.883
		s24.883,11.162,24.883,24.883C406.277,266.307,395.115,277.469,381.394,277.469z M381.394,244.2c-4.625,0-8.386,3.762-8.386,8.386
		c0,4.624,3.761,8.386,8.386,8.386c4.625,0,8.386-3.762,8.386-8.386C389.78,247.963,386.019,244.2,381.394,244.2z"/>
</g>
<path style="fill:#EFD7AB;" d="M396.202,104.86H115.798V45.454c0-3.185,2.582-5.767,5.767-5.767h268.87
	c3.185,0,5.767,2.582,5.767,5.767v59.405H396.202z"/>
<g>
	<path style="fill:#EAC591;" d="M297.779,80.522h-83.401c-4.555,0-8.248-3.692-8.248-8.248c0-4.556,3.693-8.248,8.248-8.248h83.401
		c4.555,0,8.248,3.692,8.248,8.248S302.334,80.522,297.779,80.522z"/>
	<circle style="fill:#EAC591;" cx="158.117" cy="72.274" r="8.248"/>
	<circle style="fill:#EAC591;" cx="353.88" cy="72.274" r="8.248"/>
</g>
<g>
	<rect x="115.797" y="87.302" style="fill:#E0AC70;" width="280.403" height="17.445"/>
	<rect x="92.625" y="122.506" style="fill:#E0AC70;" width="326.749" height="17.674"/>
</g>
<path d="M481.756,167.474h-35.121v-27.184c0-4.556-3.693-8.248-8.248-8.248h-10.764V104.86c0-4.556-3.693-8.248-8.248-8.248h-14.925
	V39.688c0-4.556-3.693-8.248-8.248-8.248h-63.802L307.853,2.873C306.286,1.049,304.002,0,301.596,0H209.61
	c-2.447,0-4.768,1.085-6.335,2.965L179.526,31.44h-63.729c-4.555,0-8.248,3.692-8.248,8.248v56.923H92.625
	c-4.555,0-8.248,3.692-8.248,8.248v27.184H73.612c-4.555,0-8.248,3.692-8.248,8.248v27.184h-35.12c-4.555,0-8.248,3.692-8.248,8.248
	c0,4.556,3.693,8.248,8.248,8.248h12.152l28.019,28.929c1.554,1.605,3.691,2.51,5.925,2.51h171.412v35.45
	c-21.14,3.388-37.518,20.441-41.667,37.563h-15.7v-39.824c0-4.556-3.693-8.248-8.248-8.248s-8.248,3.692-8.248,8.248v39.824H85.84
	v-39.824c0-4.556-3.693-8.248-8.248-8.248s-8.248,3.692-8.248,8.248v39.824h-10.23c-4.555,0-8.248,3.692-8.248,8.248
	c0,4.556,3.693,8.248,8.248,8.248h10.23v42.288h-10.23c-4.555,0-8.248,3.692-8.248,8.248s3.693,8.248,8.248,8.248h10.23v104.303
	h-10.23c-4.555,0-8.248,3.692-8.248,8.248s3.693,8.248,8.248,8.248h10.23v10.998H51.438c-4.555,0-8.248,3.692-8.248,8.248
	s3.693,8.248,8.248,8.248h412.423c4.555,0,8.248-3.692,8.248-8.248s-3.693-8.248-8.248-8.248h-21.204v-10.998h10.23
	c4.555,0,8.248-3.692,8.248-8.248s-3.693-8.248-8.248-8.248h-10.23V363.706h10.23c4.555,0,8.248-3.692,8.248-8.248
	s-3.693-8.248-8.248-8.248h-10.23v-42.288h9.106c4.555,0,8.248-3.692,8.248-8.248c0-4.556-3.693-8.248-8.248-8.248h-9.106v-39.824
	c0-4.556-3.693-8.248-8.248-8.248c-4.555,0-8.248,3.692-8.248,8.248v39.824h-88.048v-39.824c0-4.556-3.693-8.248-8.248-8.248
	c-4.555,0-8.248,3.692-8.248,8.248v39.824h-16.696c-4.09-16.788-20.01-33.499-40.67-37.338v-35.674h170.045
	c2.171,0,4.254-0.856,5.797-2.381l29.408-29.058h12.258c4.555,0,8.248-3.692,8.248-8.248
	C490.005,171.169,486.312,167.474,481.756,167.474z M213.471,16.497h84.339l12.839,14.943h-109.64L213.471,16.497z M124.047,47.937
	h59.342h145.223h59.342v48.675H124.047V47.937z M100.873,113.108h14.925h280.403h14.925v18.935H100.873V113.108z M81.861,148.54
	h10.764h326.751h10.764v18.935H81.861V148.54z M85.84,304.92h88.048v42.288H85.84V304.92z M85.84,363.705h88.048v104.303H85.84
	V363.705z M85.84,495.503v-10.998h88.048v10.998H85.84z M190.385,495.503V304.92h14.677v190.583H190.385z M338.112,304.92h88.048
	v42.288h-88.048V304.92z M338.112,363.705h88.048v104.303h-88.048V363.705z M338.112,484.505h88.048v10.998h-88.048V484.505z
	 M305.948,304.92h15.667v190.583h-15.667V304.92z M289.451,296.672v198.832h-67.892V296.672c0-13.47,15.598-29.925,33.803-29.925
	C273.721,266.746,289.451,283.201,289.451,296.672z M430.906,198.913H79.834l-14.472-14.942h8.251h364.775h7.639L430.906,198.913z"
	/>
<path d="M144.989,318.135H111.72c-4.555,0-8.248,3.692-8.248,8.248c0,4.556,3.693,8.248,8.248,8.248h33.269
	c4.555,0,8.248-3.692,8.248-8.248C153.237,321.827,149.545,318.135,144.989,318.135z"/>
<path d="M297.7,64.026h-83.4c-4.555,0-8.248,3.692-8.248,8.248s3.693,8.248,8.248,8.248h83.4c4.555,0,8.248-3.692,8.248-8.248
	C305.948,67.718,302.255,64.026,297.7,64.026z"/>
<path d="M398.028,318.135H364.76c-4.555,0-8.248,3.692-8.248,8.248c0,4.556,3.693,8.248,8.248,8.248h33.269
	c4.555,0,8.248-3.692,8.248-8.248C406.277,321.827,402.584,318.135,398.028,318.135z"/>
<path d="M153.237,252.586c0-13.721-11.162-24.883-24.883-24.883s-24.883,11.162-24.883,24.883c0,13.721,11.162,24.883,24.883,24.883
	S153.237,266.307,153.237,252.586z M119.969,252.586c0-4.624,3.761-8.386,8.386-8.386s8.386,3.762,8.386,8.386
	c0,4.624-3.761,8.386-8.386,8.386S119.969,257.21,119.969,252.586z"/>
<path d="M356.511,252.586c0,13.721,11.162,24.883,24.883,24.883s24.883-11.162,24.883-24.883c0-13.721-11.162-24.883-24.883-24.883
	S356.511,238.865,356.511,252.586z M389.78,252.586c0,4.624-3.761,8.386-8.386,8.386c-4.625,0-8.386-3.762-8.386-8.386
	c0-4.624,3.761-8.386,8.386-8.386C386.019,244.2,389.78,247.963,389.78,252.586z"/>
<circle cx="158.04" cy="72.274" r="8.248"/>
<circle cx="353.804" cy="72.274" r="8.248"/>
<g>
</g>
<g>
</g>
<g>
</g>
<g>
</g>
<g>
</g>
<g>
</g>
<g>
</g>
<g>
</g>
<g>
</g>
<g>
</g>
<g>
</g>
<g>
</g>
<g>
</g>
<g>
</g>
<g>
</g>
</svg>
