<?xml version="1.0" encoding="iso-8859-1"?>
<!-- Generator: Adobe Illustrator 19.0.0, SVG Export Plug-In . SVG Version: 6.00 Build 0)  -->
<svg version="1.1" id="Layer_1" xmlns="http://www.w3.org/2000/svg" xmlns:xlink="http://www.w3.org/1999/xlink" x="0px" y="0px"
	 viewBox="0 0 512 512" style="enable-background:new 0 0 512 512;" xml:space="preserve">
<g>
	<rect x="318.216" y="190.988" style="fill:#EFD7AB;" width="117.436" height="312.627"/>
	<rect x="72.992" y="190.988" style="fill:#EFD7AB;" width="117.436" height="312.627"/>
</g>
<path style="fill:#EAC591;" d="M179.251,190.992v312.623h31.684V293.145c0-18.201,19.518-38.799,42.74-38.799l0,0
	c23.222,0,43.032,20.598,43.032,38.799v210.471h32.69V190.992H179.251z"/>
<g>
	<polygon style="fill:#EFD7AB;" points="180.523,31.953 328.124,31.953 300.666,0 207.173,0 	"/>
	<path style="fill:#EFD7AB;" d="M439.697,181.395H68.949v-41.328c0-3.237,2.625-5.862,5.862-5.862h359.024
		c3.237,0,5.862,2.625,5.862,5.862L439.697,181.395L439.697,181.395z"/>
</g>
<path style="fill:#E0AC70;" d="M458.375,170.217H49.982c-3.446,0-5.2,4.14-2.802,6.616l24.541,25.338h363.814l25.582-25.277
	C463.597,174.443,461.862,170.217,458.375,170.217z"/>
<g>
	<path style="fill:#EFD7AB;" d="M254.323,263.351c-4.63,0-8.383-3.752-8.383-8.384V202.17c0-4.631,3.754-8.383,8.383-8.383
		s8.384,3.752,8.384,8.383v52.797C262.707,259.598,258.953,263.351,254.323,263.351z"/>
	<path style="fill:#EFD7AB;" d="M420.373,169.974h-332.1v-65.92c0-3.237,2.625-5.862,5.862-5.862h320.378
		c3.237,0,5.862,2.625,5.862,5.862v65.92H420.373z"/>
</g>
<g>
	<path style="fill:#EAC591;" d="M441.081,301.529H296.706c-4.63,0-8.384-3.752-8.384-8.383c0-4.631,3.754-8.384,8.384-8.384h144.375
		c4.63,0,8.383,3.752,8.383,8.384C449.465,297.777,445.711,301.529,441.081,301.529z"/>
	<path style="fill:#EAC591;" d="M210.798,301.529H66.494c-4.63,0-8.384-3.752-8.384-8.383c0-4.631,3.754-8.384,8.384-8.384h144.305
		c4.63,0,8.384,3.752,8.384,8.384C219.182,297.777,215.428,301.529,210.798,301.529z"/>
	<path style="fill:#EAC591;" d="M183.857,361.277H66.494c-4.63,0-8.384-3.752-8.384-8.383c0-4.631,3.754-8.384,8.384-8.384h117.365
		c4.63,0,8.383,3.752,8.383,8.384C192.242,357.524,188.487,361.277,183.857,361.277z"/>
	<path style="fill:#EAC591;" d="M442.153,361.277H324.788c-4.63,0-8.384-3.752-8.384-8.383c0-4.631,3.754-8.384,8.384-8.384h117.365
		c4.63,0,8.383,3.752,8.383,8.384C450.537,357.524,446.783,361.277,442.153,361.277z"/>
	<path style="fill:#EAC591;" d="M183.857,484.054H66.494c-4.63,0-8.384-3.752-8.384-8.384c0-4.631,3.754-8.384,8.384-8.384h117.365
		c4.63,0,8.383,3.752,8.383,8.384C192.242,480.301,188.487,484.054,183.857,484.054z"/>
	<path style="fill:#EAC591;" d="M442.153,484.054H324.788c-4.63,0-8.384-3.752-8.384-8.384c0-4.631,3.754-8.384,8.384-8.384h117.365
		c4.63,0,8.383,3.752,8.383,8.384C450.537,480.301,446.783,484.054,442.153,484.054z"/>
	<path style="fill:#EAC591;" d="M141.495,331.727h-33.813c-4.63,0-8.384-3.752-8.384-8.383c0-4.631,3.754-8.384,8.384-8.384h33.813
		c4.63,0,8.384,3.752,8.384,8.384C149.878,327.974,146.125,331.727,141.495,331.727z"/>
	<path style="fill:#EAC591;" d="M398.677,331.727h-33.813c-4.63,0-8.384-3.752-8.384-8.383c0-4.631,3.754-8.384,8.384-8.384h33.813
		c4.63,0,8.384,3.752,8.384,8.384C407.061,327.974,403.307,331.727,398.677,331.727z"/>
	<path style="fill:#EAC591;" d="M124.588,273.629c-13.946,0-25.29-11.345-25.29-25.29s11.345-25.29,25.29-25.29
		s25.29,11.345,25.29,25.29S138.534,273.629,124.588,273.629z M124.588,239.815c-4.7,0-8.523,3.824-8.523,8.523
		c0,4.699,3.823,8.523,8.523,8.523s8.523-3.824,8.523-8.523C133.111,243.639,129.288,239.815,124.588,239.815z"/>
	<path style="fill:#EAC591;" d="M381.771,273.629c-13.946,0-25.29-11.345-25.29-25.29s11.345-25.29,25.29-25.29
		s25.29,11.345,25.29,25.29S395.716,273.629,381.771,273.629z M381.771,239.815c-4.7,0-8.523,3.824-8.523,8.523
		c0,4.699,3.823,8.523,8.523,8.523s8.523-3.824,8.523-8.523C390.294,243.639,386.471,239.815,381.771,239.815z"/>
</g>
<path style="fill:#EFD7AB;" d="M396.821,133.962H111.826V36.697c0-3.237,2.625-5.862,5.862-5.862H390.96
	c3.237,0,5.862,2.625,5.862,5.862v97.264H396.821z"/>
<g>
	<path style="fill:#EAC591;" d="M296.786,73.456H212.02c-4.63,0-8.384-3.752-8.384-8.384s3.754-8.384,8.384-8.384h84.766
		c4.63,0,8.384,3.752,8.384,8.384S301.416,73.456,296.786,73.456z"/>
	<circle style="fill:#EAC591;" cx="154.838" cy="65.078" r="8.384"/>
	<circle style="fill:#EAC591;" cx="353.806" cy="65.078" r="8.384"/>
</g>
<g>
	<rect x="111.825" y="86.674" style="fill:#E0AC70;" width="284.995" height="11.517"/>
	<rect x="88.273" y="122.69" style="fill:#E0AC70;" width="332.099" height="11.517"/>
</g>
<polygon style="fill:#EAC591;" points="190.128,20.438 180.523,31.955 328.124,31.955 318.228,20.438 "/>
<g>
	<path style="fill:#EFD7AB;" d="M210.798,284.762h-31.467v16.767h31.467c4.63,0,8.384-3.752,8.384-8.383
		C219.182,288.515,215.428,284.762,210.798,284.762z"/>
	<path style="fill:#EFD7AB;" d="M329.475,284.762h-32.769c-4.63,0-8.384,3.752-8.384,8.384c0,4.631,3.754,8.383,8.384,8.383h32.769
		V284.762z"/>
	<path style="fill:#EFD7AB;" d="M210.798,344.51h-31.467v16.767h31.467c4.63,0,8.384-3.752,8.384-8.383
		C219.182,348.262,215.428,344.51,210.798,344.51z"/>
	<path style="fill:#EFD7AB;" d="M329.475,344.51h-32.746c-4.63,0-8.384,3.752-8.384,8.384c0,4.631,3.754,8.383,8.384,8.383h32.746
		V344.51z"/>
</g>
<path style="fill:#808080;" d="M465.588,512H46.412c-4.63,0-8.384-3.752-8.384-8.384c0-4.631,3.754-8.384,8.384-8.384h419.176
	c4.63,0,8.384,3.752,8.384,8.384C473.971,508.248,470.218,512,465.588,512z"/>
<g>
</g>
<g>
</g>
<g>
</g>
<g>
</g>
<g>
</g>
<g>
</g>
<g>
</g>
<g>
</g>
<g>
</g>
<g>
</g>
<g>
</g>
<g>
</g>
<g>
</g>
<g>
</g>
<g>
</g>
</svg>
