<?xml version="1.0" encoding="iso-8859-1"?>
<!-- Generator: Adobe Illustrator 19.0.0, SVG Export Plug-In . SVG Version: 6.00 Build 0)  -->
<svg version="1.1" id="Layer_1" xmlns="http://www.w3.org/2000/svg" xmlns:xlink="http://www.w3.org/1999/xlink" x="0px" y="0px"
	 viewBox="0 0 512 512" style="enable-background:new 0 0 512 512;" xml:space="preserve">
<path style="fill:#FF507D;" d="M442.893,176.552H264.828v70.621h178.066c4.682,0,9.173-1.86,12.484-5.171l23.897-23.897
	c3.447-3.447,3.447-9.037,0-12.484l-23.897-23.897C452.066,178.412,447.576,176.552,442.893,176.552z"/>
<path style="fill:#FFDC64;" d="M91.933,269.998l-23.897,23.897c-3.447,3.447-3.447,9.036,0,12.484l23.897,23.897
	c3.311,3.311,7.801,5.171,12.484,5.171h160.41v-70.621H104.416C99.734,264.828,95.243,266.687,91.933,269.998z"/>
<g>
	<path style="fill:#5B5D6E;" d="M132.414,308.966h-8.828c-4.879,0-8.828-3.953-8.828-8.828c0-4.875,3.948-8.828,8.828-8.828h8.828
		c4.879,0,8.828,3.953,8.828,8.828C141.241,305.013,137.293,308.966,132.414,308.966z"/>
	<path style="fill:#5B5D6E;" d="M211.862,308.966h-44.138c-4.879,0-8.828-3.953-8.828-8.828c0-4.875,3.948-8.828,8.828-8.828h44.138
		c4.879,0,8.828,3.953,8.828,8.828C220.69,305.013,216.742,308.966,211.862,308.966z"/>
</g>
<path style="fill:#B4E66E;" d="M56.622,75.792L32.725,99.689c-3.447,3.447-3.447,9.037,0,12.484l23.897,23.897
	c3.311,3.311,7.801,5.171,12.484,5.171h195.721V70.621H69.106C64.424,70.621,59.933,72.481,56.622,75.792z"/>
<rect x="229.517" y="70.621" style="fill:#A0D755;" width="35.31" height="70.621"/>
<rect x="229.517" y="264.828" style="fill:#FFC850;" width="35.31" height="70.621"/>
<rect x="264.828" y="176.552" style="fill:#D23C69;" width="35.31" height="70.621"/>
<g>
	<path style="fill:#5B5D6E;" d="M97.104,114.759h-8.828c-4.879,0-8.828-3.953-8.828-8.828s3.948-8.828,8.828-8.828h8.828
		c4.879,0,8.828,3.953,8.828,8.828S101.983,114.759,97.104,114.759z"/>
	<path style="fill:#5B5D6E;" d="M211.862,114.759h-79.448c-4.879,0-8.828-3.953-8.828-8.828s3.948-8.828,8.828-8.828h79.448
		c4.879,0,8.828,3.953,8.828,8.828S216.742,114.759,211.862,114.759z"/>
</g>
<path style="fill:#9B735A;" d="M261.862,0.242c-8.68,1.412-14.689,9.564-14.689,18.358v484.573c0,4.875,3.953,8.828,8.828,8.828
	h17.655c4.875,0,8.828-3.953,8.828-8.828V17.655C282.483,6.932,272.924-1.558,261.862,0.242z"/>
<g>
	<path style="fill:#5B5D6E;" d="M423.724,220.69h-8.828c-4.879,0-8.828-3.953-8.828-8.828s3.948-8.828,8.828-8.828h8.828
		c4.879,0,8.828,3.953,8.828,8.828S428.604,220.69,423.724,220.69z"/>
	<path style="fill:#5B5D6E;" d="M379.586,220.69h-61.793c-4.879,0-8.828-3.953-8.828-8.828s3.948-8.828,8.828-8.828h61.793
		c4.879,0,8.828,3.953,8.828,8.828S384.466,220.69,379.586,220.69z"/>
</g>
<path style="fill:#8C5F50;" d="M282.483,44.138V26.483h-17.655v-7.884c0-6.635,3.426-12.896,8.834-16.181
	c-3.389-1.97-7.465-2.882-11.799-2.177c-8.681,1.414-14.69,9.565-14.69,18.358v484.574c0,4.875,3.953,8.828,8.828,8.828h17.655
	c-4.875,0-8.828-3.953-8.828-8.828V44.138H282.483z"/>
<g>
</g>
<g>
</g>
<g>
</g>
<g>
</g>
<g>
</g>
<g>
</g>
<g>
</g>
<g>
</g>
<g>
</g>
<g>
</g>
<g>
</g>
<g>
</g>
<g>
</g>
<g>
</g>
<g>
</g>
</svg>
