<?xml version="1.0" encoding="iso-8859-1"?>
<!-- Generator: Adobe Illustrator 19.0.0, SVG Export Plug-In . SVG Version: 6.00 Build 0)  -->
<svg version="1.1" id="Layer_1" xmlns="http://www.w3.org/2000/svg" xmlns:xlink="http://www.w3.org/1999/xlink" x="0px" y="0px"
	 viewBox="0 0 512.001 512.001" style="enable-background:new 0 0 512.001 512.001;" xml:space="preserve">
<path style="fill:#8FCC05;" d="M299.087,429.541c32.673,18.864,32.835,49.445,0.374,68.309
	c-32.461,18.864-85.256,18.87-117.929,0.006c-32.672-18.864-32.845-49.45-0.384-68.314
	C213.609,410.677,266.413,410.677,299.087,429.541z"/>
<polygon style="fill:#01CDB4;" points="0.828,110.717 26.991,95.513 74.48,68.967 48.317,84.171 "/>
<polygon style="fill:#00AB95;" points="74.48,68.967 48.317,84.171 0.828,110.717 48.012,191.915 212.995,286.999 239.158,271.795 
	239.464,164.051 "/>
<polygon style="fill:#008778;" points="213.301,179.255 239.464,164.051 239.158,271.795 212.995,286.999 "/>
<polygon style="fill:#01CDB4;" points="48.317,84.171 74.48,68.967 239.464,164.051 213.301,179.255 "/>
<polygon style="fill:#00AB95;" points="213.301,179.255 212.995,286.999 48.012,191.915 0.828,110.717 48.317,84.171 "/>
<g>
	<path style="fill:#D8D8DA;" d="M288.537,28.707c0.304-7.403-4.429-14.87-14.216-20.52c-18.908-10.916-49.465-10.916-68.249,0
		c-9.361,5.441-14.03,12.566-14.021,19.696c0-0.023-0.003-0.046-0.003-0.069v436.632c-0.021,7.2,3.552,14.41,13.066,19.904
		c18.908,10.916,49.459,10.912,68.243-0.004c9.333-5.424,15.185-12.521,15.206-19.629V28.085
		C288.563,28.293,288.546,28.5,288.537,28.707z"/>
	<path style="fill:#D8D8DA;" d="M288.565,28.085v436.632c-0.02,7.108-5.872,14.206-15.206,19.629
		c-18.785,10.916-49.336,10.92-68.243,0.004c-9.514-5.493-13.087-12.704-13.066-19.904V27.816c-0.021,7.2,4.732,14.41,14.246,19.903
		c18.907,10.916,49.459,10.912,68.243-0.004C283.871,42.292,288.545,35.194,288.565,28.085z"/>
</g>
<path style="fill:#C6C5CB;" d="M274.538,47.716c9.333-5.424,14.006-12.521,14.026-19.629v436.632
	c-0.02,7.108-5.872,14.206-15.206,19.63L274.538,47.716z"/>
<path style="fill:#E0E0E2;" d="M274.322,8.187c18.908,10.916,19,28.613,0.217,39.529s-49.336,10.92-68.243,0.004
	s-19.007-28.616-0.223-39.532S255.414-2.729,274.322,8.187z"/>
<polygon style="fill:#00AB95;" points="464.182,168.685 283.286,64.245 257.23,79.386 256.926,186.689 437.823,291.129 
	485.117,264.699 511.172,249.557 "/>
<rect x="459.577" y="169.957" transform="matrix(0.8646 -0.5025 0.5025 0.8646 -44.6256 267.852)" style="fill:#01CDB4;" width="30.136" height="93.53"/>
<polygon style="fill:#00DEC1;" points="257.23,79.386 283.286,64.245 464.182,168.685 438.128,183.827 "/>
<polygon style="fill:#00AB95;" points="438.128,183.827 485.117,264.699 437.823,291.129 256.926,186.689 257.23,79.386 "/>
<g>
	<polygon style="fill:#DEFEFB;" points="412.815,186.336 268.003,102.729 267.914,134.141 412.725,217.748 	"/>
	<polygon style="fill:#DEFEFB;" points="387.577,215.619 267.145,146.086 267.11,157.969 387.544,227.501 	"/>
	<polygon style="fill:#DEFEFB;" points="184.994,182.81 56.76,108.775 56.681,136.588 184.915,210.624 	"/>
	<polygon style="fill:#DEFEFB;" points="183.485,221.486 76.844,159.917 76.813,170.438 183.456,232.007 	"/>
</g>
<g>
</g>
<g>
</g>
<g>
</g>
<g>
</g>
<g>
</g>
<g>
</g>
<g>
</g>
<g>
</g>
<g>
</g>
<g>
</g>
<g>
</g>
<g>
</g>
<g>
</g>
<g>
</g>
<g>
</g>
</svg>
