<?xml version="1.0" encoding="iso-8859-1"?>
<!-- Generator: Adobe Illustrator 19.0.0, SVG Export Plug-In . SVG Version: 6.00 Build 0)  -->
<svg version="1.1" id="Layer_1" xmlns="http://www.w3.org/2000/svg" xmlns:xlink="http://www.w3.org/1999/xlink" x="0px" y="0px"
	 viewBox="0 0 512 512" style="enable-background:new 0 0 512 512;" xml:space="preserve">
<g>
	<g>
		<path style="fill:#7C7B7A;" d="M260.339,130.169c-4.79,0-8.678-3.879-8.678-8.678c0-14.353-11.681-26.034-26.034-26.034
			c-4.79,0-8.678-3.879-8.678-8.678s3.888-8.678,8.678-8.678c23.925,0,43.39,19.465,43.39,43.39
			C269.017,126.29,265.129,130.169,260.339,130.169"/>
		<path style="fill:#7C7B7A;" d="M260.339,216.949c-4.79,0-8.678-3.879-8.678-8.678c0-14.353-11.681-26.034-26.034-26.034
			c-4.79,0-8.678-3.879-8.678-8.678c0-4.799,3.888-8.678,8.678-8.678c23.925,0,43.39,19.465,43.39,43.39
			C269.017,213.07,265.129,216.949,260.339,216.949"/>
		<path style="fill:#7C7B7A;" d="M260.339,303.729c-4.79,0-8.678-3.879-8.678-8.678c0-14.353-11.681-26.034-26.034-26.034
			c-4.79,0-8.678-3.879-8.678-8.678s3.888-8.678,8.678-8.678c23.925,0,43.39,19.465,43.39,43.39
			C269.017,299.85,265.129,303.729,260.339,303.729"/>
		<path style="fill:#7C7B7A;" d="M364.475,130.169c-4.79,0-8.678-3.879-8.678-8.678c0-23.925,19.465-43.39,43.39-43.39
			c4.79,0,8.678,3.879,8.678,8.678s-3.888,8.678-8.678,8.678c-14.353,0-26.034,11.681-26.034,26.034
			C373.153,126.29,369.265,130.169,364.475,130.169"/>
		<path style="fill:#7C7B7A;" d="M364.475,216.949c-4.79,0-8.678-3.879-8.678-8.678c0-23.925,19.465-43.39,43.39-43.39
			c4.79,0,8.678,3.879,8.678,8.678c0,4.799-3.888,8.678-8.678,8.678c-14.353,0-26.034,11.681-26.034,26.034
			C373.153,213.07,369.265,216.949,364.475,216.949"/>
		<path style="fill:#7C7B7A;" d="M364.475,303.729c-4.79,0-8.678-3.879-8.678-8.678c0-23.925,19.465-43.39,43.39-43.39
			c4.79,0,8.678,3.879,8.678,8.678s-3.888,8.678-8.678,8.678c-14.353,0-26.034,11.681-26.034,26.034
			C373.153,299.85,369.265,303.729,364.475,303.729"/>
	</g>
	<path style="fill:#535353;" d="M361.763,338.441h-98.712c-6.292,0-11.394-5.103-11.394-11.385V54.775
		c0-6.283,5.103-11.385,11.394-11.385h98.712c6.292,0,11.385,5.103,11.385,11.385v272.28
		C373.148,333.338,368.054,338.441,361.763,338.441"/>
	<path style="fill:#E85A4B;" d="M338.441,104.136c0,14.379-11.655,26.034-26.034,26.034c-14.379,0-26.034-11.655-26.034-26.034
		s11.655-26.034,26.034-26.034C326.786,78.102,338.441,89.756,338.441,104.136"/>
	<path style="fill:#FEC44C;" d="M338.441,190.915c0,14.379-11.655,26.034-26.034,26.034c-14.379,0-26.034-11.655-26.034-26.034
		c0-14.379,11.655-26.034,26.034-26.034C326.786,164.881,338.441,176.536,338.441,190.915"/>
	<path style="fill:#75B93F;" d="M338.441,277.695c0,14.379-11.655,26.034-26.034,26.034c-14.379,0-26.034-11.655-26.034-26.034
		s11.655-26.034,26.034-26.034C326.786,251.661,338.441,263.316,338.441,277.695"/>
	<path style="fill:#383838;" d="M295.051,43.39h34.712V8.678h-34.712V43.39z"/>
	<path style="fill:#7C7B7A;" d="M138.847,416.542c-4.79,0-8.678-3.879-8.678-8.678V95.458C130.169,42.826,172.995,0,225.627,0
		h182.237c4.79,0,8.678,3.879,8.678,8.678s-3.888,8.678-8.678,8.678H225.627c-43.06,0-78.102,35.033-78.102,78.102v312.407
		C147.525,412.663,143.638,416.542,138.847,416.542"/>
	<path style="fill:#383838;" d="M182.237,512h-86.78v-23.595c0-6.135,4.981-11.116,11.116-11.116h64.547
		c6.135,0,11.116,4.981,11.116,11.116V512z"/>
	<path style="fill:#535353;" d="M164.881,477.288h-52.068v-58.307c0-6.135,4.981-11.116,11.116-11.116h29.835
		c6.135,0,11.116,4.981,11.116,11.116V477.288z"/>
</g>
<g>
</g>
<g>
</g>
<g>
</g>
<g>
</g>
<g>
</g>
<g>
</g>
<g>
</g>
<g>
</g>
<g>
</g>
<g>
</g>
<g>
</g>
<g>
</g>
<g>
</g>
<g>
</g>
<g>
</g>
</svg>
